<?xml version="1.0" encoding="UTF-8" standalone="no"?>
<!-- Created with Inkscape (http://www.inkscape.org/) -->

<svg
   width="210mm"
   height="297mm"
   viewBox="0 0 210 297"
   version="1.1"
   id="svg5"
   inkscape:version="1.1 (c68e22c387, 2021-05-23)"
   sodipodi:docname="drawing.svg"
   xmlns:inkscape="http://www.inkscape.org/namespaces/inkscape"
   xmlns:sodipodi="http://sodipodi.sourceforge.net/DTD/sodipodi-0.dtd"
   xmlns="http://www.w3.org/2000/svg"
   xmlns:svg="http://www.w3.org/2000/svg">
  <sodipodi:namedview
     id="namedview7"
     pagecolor="#ffffff"
     bordercolor="#666666"
     borderopacity="1.0"
     inkscape:pageshadow="2"
     inkscape:pageopacity="0.0"
     inkscape:pagecheckerboard="0"
     inkscape:document-units="mm"
     showgrid="false"
     inkscape:zoom="4.8260885"
     inkscape:cx="335.46836"
     inkscape:cy="338.68007"
     inkscape:window-width="1920"
     inkscape:window-height="1001"
     inkscape:window-x="-9"
     inkscape:window-y="-9"
     inkscape:window-maximized="1"
     inkscape:current-layer="layer1" />
  <defs
     id="defs2" />
  <g
     inkscape:label="Layer 1"
     inkscape:groupmode="layer"
     id="layer1">
    <path
       style="fill:#fecc00;stroke:#000000;stroke-width:0.264583px;stroke-linecap:butt;stroke-linejoin:miter;stroke-opacity:1;fill-opacity:1"
       d="m 89.965455,95.009223 c 4.556977,1.772264 9.474634,4.283064 11.074355,0 -2.617444,-4.654024 -6.795647,-1.229008 -11.074355,0"
       id="path2697"
       sodipodi:nodetypes="ccc" />
    <path
       style="fill:#fecc00;stroke:#000000;stroke-width:0.264583px;stroke-linecap:butt;stroke-linejoin:miter;stroke-opacity:1;fill-opacity:1"
       d="m 89.965455,95.009223 c -4.556976,1.772264 -9.474633,4.283064 -11.074354,0 2.617444,-4.654024 6.795647,-1.229008 11.074354,0"
       id="path2699"
       sodipodi:nodetypes="ccc" />
    <path
       style="fill:#fecc00;stroke:#000000;stroke-width:0.264583px;stroke-linecap:butt;stroke-linejoin:miter;stroke-opacity:1;fill-opacity:1"
       d="m 89.965455,95.009223 c 1.772264,4.556977 4.283064,9.474637 0,11.074357 -4.654024,-2.61745 -1.229008,-6.795649 0,-11.074357"
       id="path2701"
       sodipodi:nodetypes="ccc" />
    <path
       style="fill:#fecc00;fill-opacity:1;stroke:#000000;stroke-width:0.25;stroke-linecap:butt;stroke-linejoin:miter;stroke-opacity:1;stroke-miterlimit:4;stroke-dasharray:none"
       d="m 89.900326,95.136027 c 3.067126,-0.401515 6.558825,-0.502851 6.144818,-3.365553 -2.866721,-1.78692 -4.144196,1.383293 -6.144818,3.365553"
       id="path5467"
       sodipodi:nodetypes="ccc" />
    <path
       style="fill:#fecc00;stroke:#000000;stroke-width:0.264583px;stroke-linecap:butt;stroke-linejoin:miter;stroke-opacity:1;fill-opacity:1"
       d="m 89.965455,95.009223 c 1.772264,-4.556977 4.283064,-9.474634 0,-11.074358 -4.654024,2.617447 -1.229008,6.79565 0,11.074358"
       id="path1908"
       sodipodi:nodetypes="ccc" />
    <path
       style="fill:#fecc00;fill-opacity:1;stroke:#000000;stroke-width:0.25;stroke-linecap:butt;stroke-linejoin:miter;stroke-miterlimit:4;stroke-dasharray:none;stroke-opacity:1"
       d="m 89.900326,95.136027 c 3.067126,0.401515 6.558825,0.502851 6.144818,3.365553 -2.866721,1.78692 -4.144196,-1.383293 -6.144818,-3.365553"
       id="path5530"
       sodipodi:nodetypes="ccc" />
    <path
       style="fill:#fecc00;fill-opacity:1;stroke:#000000;stroke-width:0.25;stroke-linecap:butt;stroke-linejoin:miter;stroke-miterlimit:4;stroke-dasharray:none;stroke-opacity:1"
       d="m 89.900326,95.136027 c -3.067126,0.401515 -6.558825,0.502851 -6.144818,3.365553 2.866721,1.78692 4.144196,-1.383293 6.144818,-3.365553"
       id="path5711"
       sodipodi:nodetypes="ccc" />
    <path
       style="fill:#fecc00;fill-opacity:1;stroke:#000000;stroke-width:0.25;stroke-linecap:butt;stroke-linejoin:miter;stroke-miterlimit:4;stroke-dasharray:none;stroke-opacity:1"
       d="m 89.900326,95.136027 c -3.067126,-0.401515 -6.558825,-0.502851 -6.144818,-3.365553 2.866721,-1.78692 4.144196,1.383293 6.144818,3.365553"
       id="path5713"
       sodipodi:nodetypes="ccc" />
    <path
       style="fill:#fecc00;fill-opacity:1;stroke:#000000;stroke-width:0.25;stroke-linecap:butt;stroke-linejoin:miter;stroke-miterlimit:4;stroke-dasharray:none;stroke-opacity:1"
       d="m 89.900326,95.136027 c -2.489579,-1.835885 -5.495976,-3.614595 -3.748104,-5.919244 3.373448,-0.176126 2.956884,3.216317 3.748104,5.919244"
       id="path5715"
       sodipodi:nodetypes="ccc" />
    <path
       style="fill:#fecc00;fill-opacity:1;stroke:#000000;stroke-width:0.25;stroke-linecap:butt;stroke-linejoin:miter;stroke-miterlimit:4;stroke-dasharray:none;stroke-opacity:1"
       d="m 89.900326,95.136027 c -2.489579,1.835885 -5.495976,3.614595 -3.748104,5.919243 3.373448,0.17613 2.956884,-3.216316 3.748104,-5.919243"
       id="path5717"
       sodipodi:nodetypes="ccc" />
    <path
       style="fill:#fecc00;fill-opacity:1;stroke:#000000;stroke-width:0.25;stroke-linecap:butt;stroke-linejoin:miter;stroke-miterlimit:4;stroke-dasharray:none;stroke-opacity:1"
       d="m 89.900326,95.136027 c 2.489579,1.835885 5.495976,3.614595 3.748104,5.919243 -3.373448,0.17613 -2.956884,-3.216316 -3.748104,-5.919243"
       id="path5820"
       sodipodi:nodetypes="ccc" />
    <path
       style="fill:#fecc00;fill-opacity:1;stroke:#000000;stroke-width:0.25;stroke-linecap:butt;stroke-linejoin:miter;stroke-miterlimit:4;stroke-dasharray:none;stroke-opacity:1"
       d="m 89.900326,95.136027 c 2.489579,-1.835883 5.495976,-3.614593 3.748104,-5.919241 -3.373448,-0.17613 -2.956884,3.216316 -3.748104,5.919241"
       id="path5822"
       sodipodi:nodetypes="ccc" />
    <circle
       style="fill:#ffeea9;fill-opacity:1;stroke:#000000;stroke-width:0.25;stroke-miterlimit:4;stroke-dasharray:none;stroke-opacity:1"
       id="path2764"
       cx="89.965454"
       cy="95.009216"
       r="3.0152957" />
  </g>
</svg>
